RedHatDisplay-Black.ufo
<glyph name="parenleft" format="2">
  <advance width="421"/>
  <unicode hex="0028"/>
  <outline>
    <contour>
      <point x="312" y="-221" type="curve"/>
      <point x="402" y="-122" type="line"/>
      <point x="268" y="-38"/>
      <point x="198" y="89"/>
      <point x="198" y="247" type="curve" smooth="yes"/>
      <point x="198" y="405"/>
      <point x="268" y="532"/>
      <point x="402" y="616" type="curve"/>
      <point x="312" y="715" type="line"/>
      <point x="142" y="617"/>
      <point x="48" y="451"/>
      <point x="48" y="247" type="curve" smooth="yes"/>
      <point x="48" y="43"/>
      <point x="142" y="-123"/>
    </contour>
  </outline>
</glyph>
<glyph name="asterisk" format="2">
  <advance width="487"/>
  <unicode hex="002A"/>
  <outline>
    <contour>
      <point x="193" y="306" type="line"/>
      <point x="296" y="306" type="line"/>
      <point x="294" y="412" type="line"/>
      <point x="391" y="351" type="line"/>
      <point x="449" y="438" type="line"/>
      <point x="340" y="501" type="line"/>
      <point x="451" y="567" type="line"/>
      <point x="394" y="652" type="line"/>
      <point x="294" y="589" type="line"/>
      <point x="296" y="700" type="line"/>
      <point x="193" y="700" type="line"/>
      <point x="195" y="589" type="line"/>
      <point x="95" y="652" type="line"/>
      <point x="38" y="567" type="line"/>
      <point x="149" y="501" type="line"/>
      <point x="40" y="438" type="line"/>
      <point x="96" y="351" type="line"/>
      <point x="195" y="413" type="line"/>
    </contour>
  </outline>
</glyph>
<glyph name="hyphen" format="2">
  <advance width="463"/>
  <unicode hex="002D"/>
  <outline>
    <contour>
      <point x="38" y="219" type="line"/>
      <point x="425" y="219" type="line"/>
      <point x="425" y="354" type="line"/>
      <point x="38" y="354" type="line"/>
    </contour>
  </outline>
</glyph>
<glyph name="zero" format="2">
  <advance width="694"/>
  <unicode hex="0030"/>
  <outline>
    <contour>
      <point x="347" y="-11" type="curve" smooth="yes"/>
      <point x="537" y="-11"/>
      <point x="664" y="133"/>
      <point x="664" y="350" type="curve" smooth="yes"/>
      <point x="664" y="567"/>
      <point x="537" y="711"/>
      <point x="347" y="711" type="curve" smooth="yes"/>
      <point x="157" y="711"/>
      <point x="30" y="567"/>
      <point x="30" y="350" type="curve" smooth="yes"/>
      <point x="30" y="133"/>
      <point x="157" y="-11"/>
    </contour>
    <contour>
      <point x="347" y="129" type="curve" smooth="yes"/>
      <point x="249" y="129"/>
      <point x="188" y="213"/>
      <point x="188" y="350" type="curve" smooth="yes"/>
      <point x="188" y="487"/>
      <point x="249" y="571"/>
      <point x="347" y="571" type="curve" smooth="yes"/>
      <point x="445" y="571"/>
      <point x="506" y="487"/>
      <point x="506" y="350" type="curve" smooth="yes"/>
      <point x="506" y="213"/>
      <point x="445" y="129"/>
    </contour>
  </outline>
</glyph>
<glyph name="four" format="2">
  <advance width="694"/>
  <unicode hex="0034"/>
  <outline>
    <contour>
      <point x="421" y="0" type="line"/>
      <point x="583" y="0" type="line"/>
      <point x="583" y="155" type="line"/>
      <point x="670" y="155" type="line"/>
      <point x="670" y="290" type="line"/>
      <point x="583" y="290" type="line"/>
      <point x="583" y="700" type="line"/>
      <point x="394" y="700" type="line"/>
      <point x="27" y="286" type="line"/>
      <point x="27" y="155" type="line"/>
      <point x="421" y="155" type="line"/>
    </contour>
    <contour>
      <point x="214" y="290" type="line"/>
      <point x="421" y="522" type="line"/>
      <point x="421" y="290" type="line"/>
    </contour>
  </outline>
</glyph>
<glyph name="K" format="2">
  <advance width="729"/>
  <unicode hex="004B"/>
  <anchor x="370" y="0" name="bottom"/>
  <outline>
    <contour>
      <point x="58" y="0" type="line"/>
      <point x="230" y="0" type="line"/>
      <point x="230" y="321" type="line"/>
      <point x="511" y="0" type="line"/>
      <point x="739" y="0" type="line"/>
      <point x="397" y="371" type="line"/>
      <point x="721" y="700" type="line"/>
      <point x="513" y="700" type="line"/>
      <point x="230" y="394" type="line"/>
      <point x="230" y="700" type="line"/>
      <point x="58" y="700" type="line"/>
    </contour>
  </outline>
</glyph>
<glyph name="Q" format="2">
  <advance width="814"/>
  <unicode hex="0051"/>
  <outline>
    <contour>
      <point x="600" y="-41" type="line"/>
      <point x="746" y="13" type="line"/>
      <point x="678" y="99" type="line"/>
      <point x="742" y="164"/>
      <point x="781" y="252"/>
      <point x="781" y="350" type="curve" smooth="yes"/>
      <point x="781" y="552"/>
      <point x="617" y="711"/>
      <point x="407" y="711" type="curve" smooth="yes"/>
      <point x="197" y="711"/>
      <point x="33" y="552"/>
      <point x="33" y="350" type="curve" smooth="yes"/>
      <point x="33" y="148"/>
      <point x="197" y="-11"/>
      <point x="407" y="-11" type="curve" smooth="yes"/>
      <point x="460" y="-11"/>
      <point x="509" y="-1"/>
      <point x="554" y="17" type="curve"/>
    </contour>
    <contour>
      <point x="407" y="147" type="curve" smooth="yes"/>
      <point x="295" y="147"/>
      <point x="210" y="234"/>
      <point x="210" y="350" type="curve" smooth="yes"/>
      <point x="210" y="466"/>
      <point x="295" y="553"/>
      <point x="407" y="553" type="curve" smooth="yes"/>
      <point x="519" y="553"/>
      <point x="604" y="466"/>
      <point x="604" y="350" type="curve" smooth="yes"/>
      <point x="604" y="307"/>
      <point x="592" y="267"/>
      <point x="571" y="235" type="curve"/>
      <point x="529" y="289" type="line"/>
      <point x="383" y="235" type="line"/>
      <point x="449" y="151" type="line"/>
      <point x="435" y="148"/>
      <point x="421" y="147"/>
    </contour>
  </outline>
</glyph>
<glyph name="R" format="2">
  <advance width="693"/>
  <unicode hex="0052"/>
  <anchor x="347" y="700" name="top"/>
  <anchor x="358" y="0" name="bottom"/>
  <outline>
    <contour>
      <point x="58" y="0" type="line"/>
      <point x="230" y="0" type="line"/>
      <point x="230" y="255" type="line"/>
      <point x="361" y="255" type="line"/>
      <point x="493" y="0" type="line"/>
      <point x="685" y="0" type="line"/>
      <point x="532" y="280" type="line"/>
      <point x="611" y="316"/>
      <point x="663" y="389"/>
      <point x="663" y="477" type="curve" smooth="yes"/>
      <point x="663" y="607"/>
      <point x="560" y="700"/>
      <point x="416" y="700" type="curve" smooth="yes"/>
      <point x="58" y="700" type="line"/>
    </contour>
    <contour>
      <point x="230" y="395" type="line"/>
      <point x="230" y="553" type="line"/>
      <point x="400" y="553" type="line" smooth="yes"/>
      <point x="453" y="553"/>
      <point x="489" y="521"/>
      <point x="489" y="474" type="curve" smooth="yes"/>
      <point x="489" y="427"/>
      <point x="453" y="395"/>
      <point x="400" y="395" type="curve" smooth="yes"/>
    </contour>
  </outline>
</glyph>
<glyph name="S" format="2">
  <advance width="644"/>
  <unicode hex="0053"/>
  <note>
Version created Fri Aug  3 17:49:29 2018
</note>
  <anchor x="307" y="700" name="top"/>
  <anchor x="318" y="0" name="bottom"/>
  <outline>
    <contour>
      <point x="316" y="-10" type="curve" smooth="yes"/>
      <point x="506" y="-10"/>
      <point x="623" y="78"/>
      <point x="623" y="220" type="curve" smooth="yes"/>
      <point x="623" y="328"/>
      <point x="552" y="397"/>
      <point x="417" y="419" type="curve" smooth="yes"/>
      <point x="272" y="443" type="line" smooth="yes"/>
      <point x="213" y="453"/>
      <point x="189" y="470"/>
      <point x="189" y="505" type="curve" smooth="yes"/>
      <point x="189" y="543"/>
      <point x="232" y="566"/>
      <point x="302" y="566" type="curve" smooth="yes"/>
      <point x="376" y="566"/>
      <point x="443" y="540"/>
      <point x="517" y="483" type="curve"/>
      <point x="608" y="610" type="line"/>
      <point x="531" y="672"/>
      <point x="418" y="710"/>
      <point x="314" y="710" type="curve" smooth="yes"/>
      <point x="135" y="710"/>
      <point x="27" y="628"/>
      <point x="27" y="492" type="curve" smooth="yes"/>
      <point x="27" y="389"/>
      <point x="90" y="320"/>
      <point x="204" y="300" type="curve" smooth="yes"/>
      <point x="358" y="273" type="line" smooth="yes"/>
      <point x="428" y="261"/>
      <point x="455" y="242"/>
      <point x="455" y="203" type="curve" smooth="yes"/>
      <point x="455" y="160"/>
      <point x="408" y="135"/>
      <point x="329" y="135" type="curve" smooth="yes"/>
      <point x="248" y="135"/>
      <point x="181" y="163"/>
      <point x="96" y="232" type="curve"/>
      <point x="0" y="107" type="line"/>
      <point x="87" y="33"/>
      <point x="203" y="-10"/>
    </contour>
  </outline>
</glyph>
<glyph name="Z" format="2">
  <advance width="622"/>
  <unicode hex="005A"/>
  <anchor x="320" y="700" name="top"/>
  <outline>
    <contour>
      <point x="20" y="0" type="line"/>
      <point x="609" y="0" type="line"/>
      <point x="609" y="149" type="line"/>
      <point x="245" y="149" type="line"/>
      <point x="606" y="584" type="line"/>
      <point x="606" y="700" type="line"/>
      <point x="23" y="700" type="line"/>
      <point x="23" y="551" type="line"/>
      <point x="382" y="551" type="line"/>
      <point x="20" y="116" type="line"/>
    </contour>
  </outline>
</glyph>
<glyph name="bracketleft" format="2">
  <advance width="412"/>
  <unicode hex="005B"/>
  <outline>
    <contour>
      <point x="56" y="-215" type="line"/>
      <point x="374" y="-215" type="line"/>
      <point x="374" y="-89" type="line"/>
      <point x="209" y="-89" type="line"/>
      <point x="209" y="574" type="line"/>
      <point x="374" y="574" type="line"/>
      <point x="374" y="700" type="line"/>
      <point x="56" y="700" type="line"/>
    </contour>
  </outline>
</glyph>
<glyph name="c" format="2">
  <advance width="539"/>
  <unicode hex="0063"/>
  <anchor x="304" y="529" name="top"/>
  <anchor x="309" y="0" name="bottom"/>
  <outline>
    <contour>
      <point x="306" y="-10" type="curve" smooth="yes"/>
      <point x="390" y="-10"/>
      <point x="471" y="26"/>
      <point x="525" y="87" type="curve"/>
      <point x="429" y="187" type="line"/>
      <point x="394" y="148"/>
      <point x="358" y="130"/>
      <point x="314" y="130" type="curve" smooth="yes"/>
      <point x="241" y="130"/>
      <point x="187" y="187"/>
      <point x="187" y="264" type="curve" smooth="yes"/>
      <point x="187" y="341"/>
      <point x="240" y="399"/>
      <point x="310" y="399" type="curve" smooth="yes"/>
      <point x="357" y="399"/>
      <point x="394" y="380"/>
      <point x="431" y="338" type="curve"/>
      <point x="530" y="441" type="line"/>
      <point x="475" y="503"/>
      <point x="393" y="539"/>
      <point x="306" y="539" type="curve" smooth="yes"/>
      <point x="148" y="539"/>
      <point x="26" y="419"/>
      <point x="26" y="264" type="curve" smooth="yes"/>
      <point x="26" y="109"/>
      <point x="148" y="-10"/>
    </contour>
  </outline>
</glyph>
<glyph name="h" format="2">
  <advance width="611"/>
  <unicode hex="0068"/>
  <anchor x="130" y="700" name="top"/>
  <outline>
    <contour>
      <point x="50" y="0" type="line"/>
      <point x="212" y="0" type="line"/>
      <point x="212" y="358" type="line"/>
      <point x="234" y="385"/>
      <point x="266" y="400"/>
      <point x="307" y="400" type="curve" smooth="yes"/>
      <point x="365" y="400"/>
      <point x="403" y="362"/>
      <point x="403" y="304" type="curve" smooth="yes"/>
      <point x="403" y="0" type="line"/>
      <point x="565" y="0" type="line"/>
      <point x="565" y="326" type="line" smooth="yes"/>
      <point x="565" y="451"/>
      <point x="478" y="539"/>
      <point x="354" y="539" type="curve" smooth="yes"/>
      <point x="300" y="539"/>
      <point x="251" y="523"/>
      <point x="212" y="493" type="curve"/>
      <point x="212" y="735" type="line"/>
      <point x="50" y="700" type="line"/>
    </contour>
  </outline>
</glyph>
<glyph name="i" format="2">
  <advance width="262"/>
  <unicode hex="0069"/>
  <anchor x="131" y="529" name="top"/>
  <anchor x="212" y="0" name="bottom"/>
  <outline>
    <contour>
      <point x="50" y="0" type="line"/>
      <point x="212" y="0" type="line"/>
      <point x="212" y="529" type="line"/>
      <point x="50" y="529" type="line"/>
    </contour>
    <contour>
      <point x="131" y="578" type="curve" smooth="yes"/>
      <point x="180" y="578"/>
      <point x="220" y="618"/>
      <point x="220" y="667" type="curve" smooth="yes"/>
      <point x="220" y="716"/>
      <point x="180" y="756"/>
      <point x="131" y="756" type="curve" smooth="yes"/>
      <point x="82" y="756"/>
      <point x="42" y="716"/>
      <point x="42" y="667" type="curve" smooth="yes"/>
      <point x="42" y="618"/>
      <point x="82" y="578"/>
    </contour>
  </outline>
</glyph>
<glyph name="j" format="2">
  <advance width="262"/>
  <unicode hex="006A"/>
  <outline>
    <contour>
      <point x="131" y="578" type="curve" smooth="yes"/>
      <point x="180" y="578"/>
      <point x="220" y="618"/>
      <point x="220" y="667" type="curve" smooth="yes"/>
      <point x="220" y="716"/>
      <point x="180" y="756"/>
      <point x="131" y="756" type="curve" smooth="yes"/>
      <point x="82" y="756"/>
      <point x="42" y="716"/>
      <point x="42" y="667" type="curve" smooth="yes"/>
      <point x="42" y="618"/>
      <point x="82" y="578"/>
    </contour>
    <contour>
      <point x="27" y="-214" type="curve" smooth="yes"/>
      <point x="145" y="-214"/>
      <point x="212" y="-153"/>
      <point x="212" y="-47" type="curve" smooth="yes"/>
      <point x="212" y="529" type="line"/>
      <point x="50" y="529" type="line"/>
      <point x="50" y="-38" type="line" smooth="yes"/>
      <point x="50" y="-71"/>
      <point x="32" y="-86"/>
      <point x="-7" y="-86" type="curve" smooth="yes"/>
      <point x="-26" y="-86"/>
      <point x="-39" y="-85"/>
      <point x="-54" y="-82" type="curve"/>
      <point x="-54" y="-204" type="line"/>
      <point x="-36" y="-210"/>
      <point x="-1" y="-214"/>
    </contour>
  </outline>
</glyph>
<glyph name="q" format="2">
  <advance width="648"/>
  <unicode hex="0071"/>
  <outline>
    <contour>
      <point x="436" y="-204" type="line"/>
      <point x="598" y="-204" type="line"/>
      <point x="598" y="529" type="line"/>
      <point x="438" y="529" type="line"/>
      <point x="438" y="499" type="line"/>
      <point x="398" y="523"/>
      <point x="351" y="536"/>
      <point x="301" y="536" type="curve" smooth="yes"/>
      <point x="147" y="536"/>
      <point x="26" y="417"/>
      <point x="26" y="265" type="curve" smooth="yes"/>
      <point x="26" y="113"/>
      <point x="145" y="-7"/>
      <point x="296" y="-7" type="curve" smooth="yes"/>
      <point x="347" y="-7"/>
      <point x="395" y="8"/>
      <point x="436" y="37" type="curve"/>
    </contour>
    <contour>
      <point x="324" y="131" type="curve" smooth="yes"/>
      <point x="246" y="131"/>
      <point x="185" y="189"/>
      <point x="185" y="265" type="curve" smooth="yes"/>
      <point x="185" y="341"/>
      <point x="245" y="399"/>
      <point x="324" y="399" type="curve" smooth="yes"/>
      <point x="368" y="399"/>
      <point x="408" y="384"/>
      <point x="436" y="358" type="curve"/>
      <point x="436" y="173" type="line"/>
      <point x="407" y="145"/>
      <point x="369" y="131"/>
    </contour>
  </outline>
</glyph>
<glyph name="s" format="2">
  <advance width="509"/>
  <unicode hex="0073"/>
  <note>
Version created Fri Aug  3 17:49:29 2018
</note>
  <anchor x="248" y="529" name="top"/>
  <anchor x="260" y="0" name="bottom"/>
  <outline>
    <contour>
      <point x="259" y="-10" type="curve" smooth="yes"/>
      <point x="396" y="-10"/>
      <point x="497" y="66"/>
      <point x="497" y="169" type="curve" smooth="yes"/>
      <point x="497" y="252"/>
      <point x="438" y="308"/>
      <point x="334" y="323" type="curve" smooth="yes"/>
      <point x="229" y="339" type="line" smooth="yes"/>
      <point x="184" y="346"/>
      <point x="167" y="357"/>
      <point x="167" y="379" type="curve" smooth="yes"/>
      <point x="167" y="402"/>
      <point x="194" y="417"/>
      <point x="236" y="417" type="curve" smooth="yes"/>
      <point x="288" y="417"/>
      <point x="339" y="402"/>
      <point x="396" y="369" type="curve"/>
      <point x="473" y="473" type="line"/>
      <point x="407" y="515"/>
      <point x="329" y="537"/>
      <point x="252" y="537" type="curve" smooth="yes"/>
      <point x="110" y="537"/>
      <point x="24" y="472"/>
      <point x="24" y="365" type="curve" smooth="yes"/>
      <point x="24" y="278"/>
      <point x="81" y="223"/>
      <point x="186" y="207" type="curve" smooth="yes"/>
      <point x="291" y="191" type="line" smooth="yes"/>
      <point x="328" y="185"/>
      <point x="345" y="173"/>
      <point x="345" y="153" type="curve" smooth="yes"/>
      <point x="345" y="127"/>
      <point x="311" y="111"/>
      <point x="258" y="111" type="curve" smooth="yes"/>
      <point x="204" y="111"/>
      <point x="153" y="128"/>
      <point x="86" y="168" type="curve"/>
      <point x="9" y="59" type="line"/>
      <point x="71" y="14"/>
      <point x="159" y="-10"/>
    </contour>
  </outline>
</glyph>
<glyph name="cent" format="2">
  <advance width="539"/>
  <unicode hex="00A2"/>
  <outline>
    <contour>
      <point x="276" y="-110" type="line"/>
      <point x="342" y="-110" type="line"/>
      <point x="342" y="-8" type="line"/>
      <point x="413" y="1"/>
      <point x="479" y="35"/>
      <point x="525" y="87" type="curve"/>
      <point x="429" y="187" type="line"/>
      <point x="402" y="157"/>
      <point x="374" y="139"/>
      <point x="342" y="133" type="curve"/>
      <point x="342" y="396" type="line"/>
      <point x="375" y="389"/>
      <point x="403" y="370"/>
      <point x="431" y="338" type="curve"/>
      <point x="530" y="441" type="line"/>
      <point x="483" y="494"/>
      <point x="415" y="528"/>
      <point x="342" y="537" type="curve"/>
      <point x="342" y="625" type="line"/>
      <point x="276" y="625" type="line"/>
      <point x="276" y="538" type="line"/>
      <point x="133" y="523"/>
      <point x="26" y="409"/>
      <point x="26" y="264" type="curve" smooth="yes"/>
      <point x="26" y="119"/>
      <point x="133" y="5"/>
      <point x="276" y="-9" type="curve"/>
    </contour>
    <contour>
      <point x="187" y="264" type="curve" smooth="yes"/>
      <point x="187" y="328"/>
      <point x="224" y="379"/>
      <point x="276" y="394" type="curve"/>
      <point x="276" y="136" type="line"/>
      <point x="223" y="152"/>
      <point x="187" y="201"/>
    </contour>
  </outline>
</glyph>
<glyph name="sterling" format="2">
  <advance width="661"/>
  <unicode hex="00A3"/>
  <outline>
    <contour>
      <point x="477" y="-29" type="curve" smooth="yes"/>
      <point x="554" y="-29"/>
      <point x="611" y="9"/>
      <point x="654" y="89" type="curve"/>
      <point x="536" y="159" type="line"/>
      <point x="516" y="118"/>
      <point x="490" y="100"/>
      <point x="454" y="100" type="curve" smooth="yes"/>
      <point x="442" y="100"/>
      <point x="429" y="101"/>
      <point x="415" y="105" type="curve" smooth="yes"/>
      <point x="265" y="143" type="line"/>
      <point x="285" y="164"/>
      <point x="294" y="191"/>
      <point x="294" y="224" type="curve" smooth="yes"/>
      <point x="294" y="236"/>
      <point x="292" y="249"/>
      <point x="288" y="275" type="curve"/>
      <point x="446" y="275" type="line"/>
      <point x="446" y="377" type="line"/>
      <point x="266" y="377" type="line"/>
      <point x="253" y="443"/>
      <point x="251" y="457"/>
      <point x="251" y="471" type="curve" smooth="yes"/>
      <point x="251" y="538"/>
      <point x="290" y="578"/>
      <point x="362" y="578" type="curve" smooth="yes"/>
      <point x="424" y="578"/>
      <point x="463" y="545"/>
      <point x="486" y="481" type="curve"/>
      <point x="619" y="525" type="line"/>
      <point x="580" y="648"/>
      <point x="491" y="710"/>
      <point x="354" y="710" type="curve" smooth="yes"/>
      <point x="200" y="710"/>
      <point x="101" y="614"/>
      <point x="101" y="473" type="curve" smooth="yes"/>
      <point x="101" y="452"/>
      <point x="103" y="429"/>
      <point x="114" y="377" type="curve"/>
      <point x="40" y="377" type="line"/>
      <point x="40" y="275" type="line"/>
      <point x="134" y="275" type="line"/>
      <point x="149" y="203"/>
      <point x="150" y="197"/>
      <point x="150" y="192" type="curve" smooth="yes"/>
      <point x="150" y="178"/>
      <point x="145" y="166"/>
      <point x="136" y="157" type="curve"/>
      <point x="70" y="149"/>
      <point x="21" y="111"/>
      <point x="-17" y="41" type="curve"/>
      <point x="106" y="-35" type="line"/>
      <point x="128" y="10"/>
      <point x="153" y="30"/>
      <point x="190" y="30" type="curve" smooth="yes"/>
      <point x="201" y="30"/>
      <point x="214" y="28"/>
      <point x="227" y="25" type="curve" smooth="yes"/>
      <point x="397" y="-18" type="line" smooth="yes"/>
      <point x="426" y="-25"/>
      <point x="452" y="-29"/>
    </contour>
  </outline>
</glyph>
<glyph name="registered" format="2">
  <advance width="486"/>
  <unicode hex="00AE"/>
  <outline>
    <contour>
      <point x="243" y="304" type="curve" smooth="yes"/>
      <point x="358" y="304"/>
      <point x="450" y="397"/>
      <point x="450" y="513" type="curve" smooth="yes"/>
      <point x="450" y="629"/>
      <point x="358" y="722"/>
      <point x="243" y="722" type="curve" smooth="yes"/>
      <point x="128" y="722"/>
      <point x="36" y="630"/>
      <point x="36" y="513" type="curve" smooth="yes"/>
      <point x="36" y="396"/>
      <point x="128" y="304"/>
    </contour>
    <contour>
      <point x="242" y="353" type="curve" smooth="yes"/>
      <point x="153" y="353"/>
      <point x="89" y="420"/>
      <point x="89" y="513" type="curve" smooth="yes"/>
      <point x="89" y="606"/>
      <point x="153" y="673"/>
      <point x="242" y="673" type="curve" smooth="yes"/>
      <point x="333" y="673"/>
      <point x="397" y="606"/>
      <point x="397" y="513" type="curve" smooth="yes"/>
      <point x="397" y="420"/>
      <point x="333" y="353"/>
    </contour>
    <contour>
      <point x="168" y="420" type="line"/>
      <point x="221" y="420" type="line"/>
      <point x="221" y="485" type="line"/>
      <point x="242" y="485" type="line"/>
      <point x="275" y="420" type="line"/>
      <point x="333" y="420" type="line"/>
      <point x="290" y="496" type="line"/>
      <point x="310" y="507"/>
      <point x="322" y="526"/>
      <point x="322" y="548" type="curve" smooth="yes"/>
      <point x="322" y="584"/>
      <point x="297" y="608"/>
      <point x="258" y="608" type="curve" smooth="yes"/>
      <point x="168" y="608" type="line"/>
    </contour>
    <contour>
      <point x="246" y="568" type="line" smooth="yes"/>
      <point x="262" y="568"/>
      <point x="270" y="560"/>
      <point x="270" y="545" type="curve" smooth="yes"/>
      <point x="270" y="531"/>
      <point x="260" y="522"/>
      <point x="245" y="522" type="curve" smooth="yes"/>
      <point x="221" y="522" type="line"/>
      <point x="221" y="568" type="line"/>
    </contour>
  </outline>
</glyph>
<glyph name="macron" format="2">
  <advance width="600"/>
  <unicode hex="00AF"/>
  <outline>
    <contour>
      <point x="133" y="626" type="line"/>
      <point x="467" y="626" type="line"/>
      <point x="467" y="726" type="line"/>
      <point x="133" y="726" type="line"/>
    </contour>
  </outline>
</glyph>
<glyph name="twosuperior" format="2">
  <advance width="313"/>
  <unicode hex="00B2"/>
  <outline>
    <contour>
      <point x="27" y="350" type="line"/>
      <point x="295" y="350" type="line"/>
      <point x="295" y="431" type="line"/>
      <point x="170" y="431" type="line"/>
      <point x="230" y="481" type="line" smooth="yes"/>
      <point x="273" y="515"/>
      <point x="293" y="550"/>
      <point x="293" y="590" type="curve" smooth="yes"/>
      <point x="293" y="659"/>
      <point x="237" y="704"/>
      <point x="154" y="705" type="curve" smooth="yes"/>
      <point x="100" y="704"/>
      <point x="49" y="683"/>
      <point x="5" y="643" type="curve"/>
      <point x="59" y="579" type="line"/>
      <point x="92" y="609"/>
      <point x="118" y="622"/>
      <point x="150" y="622" type="curve" smooth="yes"/>
      <point x="178" y="622"/>
      <point x="198" y="606"/>
      <point x="198" y="584" type="curve" smooth="yes"/>
      <point x="198" y="568"/>
      <point x="187" y="552"/>
      <point x="170" y="538" type="curve" smooth="yes"/>
      <point x="27" y="419" type="line"/>
    </contour>
  </outline>
</glyph>
<glyph name="threesuperior" format="2">
  <advance width="335"/>
  <unicode hex="00B3"/>
  <outline>
    <contour>
      <point x="162" y="345" type="curve" smooth="yes"/>
      <point x="250" y="345"/>
      <point x="314" y="389"/>
      <point x="314" y="450" type="curve" smooth="yes"/>
      <point x="314" y="483"/>
      <point x="294" y="509"/>
      <point x="261" y="523" type="curve"/>
      <point x="289" y="542"/>
      <point x="306" y="570"/>
      <point x="306" y="604" type="curve" smooth="yes"/>
      <point x="306" y="665"/>
      <point x="249" y="706"/>
      <point x="165" y="706" type="curve" smooth="yes"/>
      <point x="109" y="706"/>
      <point x="51" y="680"/>
      <point x="16" y="641" type="curve"/>
      <point x="82" y="582" type="line"/>
      <point x="111" y="612"/>
      <point x="129" y="621"/>
      <point x="161" y="621" type="curve" smooth="yes"/>
      <point x="189" y="621"/>
      <point x="208" y="609"/>
      <point x="208" y="591" type="curve" smooth="yes"/>
      <point x="208" y="571"/>
      <point x="188" y="557"/>
      <point x="159" y="557" type="curve" smooth="yes"/>
      <point x="135" y="557" type="line"/>
      <point x="135" y="480" type="line"/>
      <point x="170" y="480" type="line" smooth="yes"/>
      <point x="199" y="480"/>
      <point x="215" y="472"/>
      <point x="215" y="458" type="curve" smooth="yes"/>
      <point x="215" y="440"/>
      <point x="194" y="428"/>
      <point x="161" y="428" type="curve" smooth="yes"/>
      <point x="123" y="428"/>
      <point x="106" y="436"/>
      <point x="80" y="464" type="curve"/>
      <point x="14" y="404" type="line"/>
      <point x="46" y="367"/>
      <point x="102" y="345"/>
    </contour>
  </outline>
</glyph>
<glyph name="acute" format="2">
  <advance width="600"/>
  <unicode hex="00B4"/>
  <outline>
    <contour>
      <point x="212" y="611" type="line"/>
      <point x="341" y="611" type="line"/>
      <point x="481" y="747" type="line"/>
      <point x="300" y="747" type="line"/>
    </contour>
  </outline>
</glyph>
<glyph name="paragraph" format="2">
  <advance width="719"/>
  <unicode hex="00B6"/>
  <outline>
    <contour>
      <point x="312" y="0" type="line"/>
      <point x="442" y="0" type="line"/>
      <point x="442" y="238" type="line"/>
      <point x="529" y="238" type="line"/>
      <point x="529" y="0" type="line"/>
      <point x="660" y="0" type="line"/>
      <point x="660" y="700" type="line"/>
      <point x="283" y="700" type="line" smooth="yes"/>
      <point x="126" y="700"/>
      <point x="23" y="607"/>
      <point x="23" y="464" type="curve" smooth="yes"/>
      <point x="23" y="331"/>
      <point x="130" y="238"/>
      <point x="283" y="238" type="curve" smooth="yes"/>
      <point x="312" y="238" type="line"/>
    </contour>
    <contour>
      <point x="442" y="365" type="line"/>
      <point x="442" y="570" type="line"/>
      <point x="529" y="570" type="line"/>
      <point x="529" y="365" type="line"/>
    </contour>
    <contour>
      <point x="276" y="365" type="line" smooth="yes"/>
      <point x="209" y="365"/>
      <point x="165" y="406"/>
      <point x="165" y="468" type="curve" smooth="yes"/>
      <point x="165" y="529"/>
      <point x="209" y="570"/>
      <point x="276" y="570" type="curve" smooth="yes"/>
      <point x="312" y="570" type="line"/>
      <point x="312" y="365" type="line"/>
    </contour>
  </outline>
</glyph>
<glyph name="Ccedilla" format="2">
  <advance width="716"/>
  <unicode hex="00C7"/>
  <outline>
    <contour>
      <point x="388" y="-239" type="curve" smooth="yes"/>
      <point x="467" y="-239"/>
      <point x="527" y="-193"/>
      <point x="527" y="-134" type="curve" smooth="yes"/>
      <point x="527" y="-83"/>
      <point x="491" y="-48"/>
      <point x="432" y="-42" type="curve"/>
      <point x="442" y="-8" type="line"/>
      <point x="543" y="1"/>
      <point x="642" y="51"/>
      <point x="701" y="125" type="curve"/>
      <point x="588" y="236" type="line"/>
      <point x="541" y="178"/>
      <point x="483" y="149"/>
      <point x="415" y="149" type="curve" smooth="yes"/>
      <point x="298" y="149"/>
      <point x="210" y="236"/>
      <point x="210" y="350" type="curve" smooth="yes"/>
      <point x="210" y="466"/>
      <point x="296" y="553"/>
      <point x="409" y="553" type="curve" smooth="yes"/>
      <point x="480" y="553"/>
      <point x="541" y="522"/>
      <point x="590" y="460" type="curve"/>
      <point x="706" y="574" type="line"/>
      <point x="642" y="657"/>
      <point x="525" y="711"/>
      <point x="409" y="711" type="curve" smooth="yes"/>
      <point x="197" y="711"/>
      <point x="33" y="554"/>
      <point x="33" y="350" type="curve" smooth="yes"/>
      <point x="33" y="161"/>
      <point x="175" y="11"/>
      <point x="367" y="-8" type="curve"/>
      <point x="340" y="-99" type="line"/>
      <point x="387" y="-99" type="line" smooth="yes"/>
      <point x="417" y="-99"/>
      <point x="436" y="-112"/>
      <point x="436" y="-132" type="curve" smooth="yes"/>
      <point x="436" y="-154"/>
      <point x="418" y="-166"/>
      <point x="385" y="-166" type="curve" smooth="yes"/>
      <point x="359" y="-166"/>
      <point x="333" y="-156"/>
      <point x="309" y="-138" type="curve"/>
      <point x="258" y="-192" type="line"/>
      <point x="294" y="-224"/>
      <point x="336" y="-239"/>
    </contour>
  </outline>
</glyph>
<glyph name="Dcroat" format="2">
  <advance width="780"/>
  <unicode hex="0110"/>
  <outline>
    <contour>
      <point x="93" y="0" type="line"/>
      <point x="377" y="0" type="line" smooth="yes"/>
      <point x="584" y="0"/>
      <point x="747" y="154"/>
      <point x="747" y="348" type="curve" smooth="yes"/>
      <point x="747" y="545"/>
      <point x="584" y="700"/>
      <point x="377" y="700" type="curve" smooth="yes"/>
      <point x="93" y="700" type="line"/>
      <point x="93" y="418" type="line"/>
      <point x="18" y="418" type="line"/>
      <point x="18" y="283" type="line"/>
      <point x="93" y="283" type="line"/>
    </contour>
    <contour>
      <point x="265" y="152" type="line"/>
      <point x="265" y="283" type="line"/>
      <point x="421" y="283" type="line"/>
      <point x="421" y="418" type="line"/>
      <point x="265" y="418" type="line"/>
      <point x="265" y="548" type="line"/>
      <point x="373" y="548" type="line" smooth="yes"/>
      <point x="483" y="548"/>
      <point x="569" y="460"/>
      <point x="569" y="348" type="curve" smooth="yes"/>
      <point x="569" y="238"/>
      <point x="483" y="152"/>
      <point x="373" y="152" type="curve" smooth="yes"/>
    </contour>
  </outline>
</glyph>
<glyph name="Scedilla" format="2">
  <advance width="644"/>
  <unicode hex="015E"/>
  <outline>
    <contour>
      <point x="296" y="-239" type="curve" smooth="yes"/>
      <point x="375" y="-239"/>
      <point x="435" y="-193"/>
      <point x="435" y="-134" type="curve" smooth="yes"/>
      <point x="435" y="-83"/>
      <point x="399" y="-48"/>
      <point x="340" y="-42" type="curve"/>
      <point x="350" y="-9" type="line"/>
      <point x="520" y="1"/>
      <point x="623" y="87"/>
      <point x="623" y="220" type="curve" smooth="yes"/>
      <point x="623" y="328"/>
      <point x="552" y="397"/>
      <point x="417" y="419" type="curve" smooth="yes"/>
      <point x="272" y="443" type="line" smooth="yes"/>
      <point x="213" y="453"/>
      <point x="189" y="470"/>
      <point x="189" y="505" type="curve" smooth="yes"/>
      <point x="189" y="543"/>
      <point x="232" y="566"/>
      <point x="302" y="566" type="curve" smooth="yes"/>
      <point x="376" y="566"/>
      <point x="443" y="540"/>
      <point x="517" y="483" type="curve"/>
      <point x="608" y="610" type="line"/>
      <point x="531" y="672"/>
      <point x="418" y="710"/>
      <point x="314" y="710" type="curve" smooth="yes"/>
      <point x="135" y="710"/>
      <point x="27" y="628"/>
      <point x="27" y="492" type="curve" smooth="yes"/>
      <point x="27" y="389"/>
      <point x="90" y="320"/>
      <point x="204" y="300" type="curve" smooth="yes"/>
      <point x="358" y="273" type="line" smooth="yes"/>
      <point x="428" y="261"/>
      <point x="455" y="242"/>
      <point x="455" y="203" type="curve" smooth="yes"/>
      <point x="455" y="160"/>
      <point x="408" y="135"/>
      <point x="329" y="135" type="curve" smooth="yes"/>
      <point x="248" y="135"/>
      <point x="181" y="163"/>
      <point x="96" y="232" type="curve"/>
      <point x="0" y="107" type="line"/>
      <point x="76" y="42"/>
      <point x="175" y="1"/>
      <point x="275" y="-8" type="curve"/>
      <point x="248" y="-99" type="line"/>
      <point x="295" y="-99" type="line" smooth="yes"/>
      <point x="325" y="-99"/>
      <point x="344" y="-112"/>
      <point x="344" y="-132" type="curve" smooth="yes"/>
      <point x="344" y="-154"/>
      <point x="326" y="-166"/>
      <point x="293" y="-166" type="curve" smooth="yes"/>
      <point x="267" y="-166"/>
      <point x="241" y="-156"/>
      <point x="217" y="-138" type="curve"/>
      <point x="166" y="-192" type="line"/>
      <point x="202" y="-224"/>
      <point x="244" y="-239"/>
    </contour>
  </outline>
</glyph>
<glyph name="tcaron" format="2">
  <advance width="448"/>
  <unicode hex="0165"/>
  <outline>
    <contour>
      <point x="348" y="591" type="line"/>
      <point x="437" y="591" type="line"/>
      <point x="477" y="818" type="line"/>
      <point x="352" y="793" type="line"/>
    </contour>
    <contour>
      <point x="317" y="-7" type="curve" smooth="yes"/>
      <point x="348" y="-7"/>
      <point x="400" y="0"/>
      <point x="430" y="9" type="curve"/>
      <point x="430" y="140" type="line"/>
      <point x="403" y="132"/>
      <point x="383" y="129"/>
      <point x="357" y="129" type="curve" smooth="yes"/>
      <point x="305" y="129"/>
      <point x="287" y="146"/>
      <point x="287" y="193" type="curve" smooth="yes"/>
      <point x="287" y="394" type="line"/>
      <point x="435" y="394" type="line"/>
      <point x="435" y="529" type="line"/>
      <point x="287" y="529" type="line"/>
      <point x="287" y="700" type="line"/>
      <point x="125" y="665" type="line"/>
      <point x="125" y="529" type="line"/>
      <point x="18" y="529" type="line"/>
      <point x="18" y="394" type="line"/>
      <point x="125" y="394" type="line"/>
      <point x="125" y="161" type="line" smooth="yes"/>
      <point x="125" y="50"/>
      <point x="190" y="-7"/>
    </contour>
  </outline>
</glyph>
<glyph name="circumflex" format="2">
  <advance width="600"/>
  <unicode hex="02C6"/>
  <outline>
    <contour>
      <point x="368" y="609" type="line"/>
      <point x="501" y="609" type="line"/>
      <point x="382" y="750" type="line"/>
      <point x="218" y="750" type="line"/>
      <point x="99" y="609" type="line"/>
      <point x="228" y="609" type="line"/>
      <point x="298" y="680" type="line"/>
    </contour>
  </outline>
</glyph>
<glyph name="caron" format="2">
  <advance width="600"/>
  <unicode hex="02C7"/>
  <outline>
    <contour>
      <point x="232" y="750" type="line"/>
      <point x="99" y="750" type="line"/>
      <point x="218" y="609" type="line"/>
      <point x="382" y="609" type="line"/>
      <point x="501" y="750" type="line"/>
      <point x="372" y="750" type="line"/>
      <point x="302" y="679" type="line"/>
    </contour>
  </outline>
</glyph>
<glyph name="dotaccent" format="2">
  <advance width="600"/>
  <unicode hex="02D9"/>
  <outline>
    <contour>
      <point x="300" y="602" type="curve" smooth="yes"/>
      <point x="349" y="602"/>
      <point x="385" y="637"/>
      <point x="385" y="684" type="curve" smooth="yes"/>
      <point x="385" y="731"/>
      <point x="349" y="766"/>
      <point x="300" y="766" type="curve" smooth="yes"/>
      <point x="251" y="766"/>
      <point x="215" y="731"/>
      <point x="215" y="684" type="curve" smooth="yes"/>
      <point x="215" y="637"/>
      <point x="251" y="602"/>
    </contour>
  </outline>
</glyph>
<glyph name="tilde" format="2">
  <advance width="600"/>
  <unicode hex="02DC"/>
  <outline>
    <contour>
      <point x="193" y="598" type="line"/>
      <point x="201" y="635"/>
      <point x="213" y="650"/>
      <point x="234" y="650" type="curve"/>
      <point x="272" y="650"/>
      <point x="328" y="602"/>
      <point x="383" y="602" type="curve" smooth="yes"/>
      <point x="446" y="602"/>
      <point x="486" y="644"/>
      <point x="504" y="732" type="curve"/>
      <point x="409" y="753" type="line"/>
      <point x="399" y="714"/>
      <point x="388" y="701"/>
      <point x="366" y="701" type="curve"/>
      <point x="330" y="701"/>
      <point x="274" y="749"/>
      <point x="218" y="749" type="curve" smooth="yes"/>
      <point x="155" y="749"/>
      <point x="115" y="707"/>
      <point x="96" y="619" type="curve"/>
    </contour>
  </outline>
</glyph>
<glyph name="hungarumlaut" format="2">
  <advance width="600"/>
  <unicode hex="02DD"/>
  <outline>
    <contour>
      <point x="112" y="613" type="line"/>
      <point x="234" y="613" type="line"/>
      <point x="368" y="746" type="line"/>
      <point x="212" y="746" type="line"/>
    </contour>
    <contour>
      <point x="335" y="613" type="line"/>
      <point x="447" y="613" type="line"/>
      <point x="593" y="746" type="line"/>
      <point x="435" y="746" type="line"/>
    </contour>
  </outline>
</glyph>
<glyph name="acutecomb" format="2">
  <unicode hex="0301"/>
  <anchor x="300" y="529" name="_top"/>
  <outline>
    <contour>
      <point x="212" y="611" type="line"/>
      <point x="341" y="611" type="line"/>
      <point x="481" y="747" type="line"/>
      <point x="300" y="747" type="line"/>
    </contour>
  </outline>
</glyph>
<glyph name="uni0307" format="2">
  <unicode hex="0307"/>
  <anchor x="300" y="529" name="_top"/>
  <outline>
    <contour>
      <point x="300" y="602" type="curve" smooth="yes"/>
      <point x="349" y="602"/>
      <point x="385" y="637"/>
      <point x="385" y="684" type="curve" smooth="yes"/>
      <point x="385" y="731"/>
      <point x="349" y="766"/>
      <point x="300" y="766" type="curve" smooth="yes"/>
      <point x="251" y="766"/>
      <point x="215" y="731"/>
      <point x="215" y="684" type="curve" smooth="yes"/>
      <point x="215" y="637"/>
      <point x="251" y="602"/>
    </contour>
  </outline>
</glyph>
<glyph name="uni2015" format="2">
  <advance width="963"/>
  <unicode hex="2015"/>
  <outline>
    <contour>
      <point x="38" y="219" type="line"/>
      <point x="925" y="219" type="line"/>
      <point x="925" y="354" type="line"/>
      <point x="38" y="354" type="line"/>
    </contour>
  </outline>
</glyph>
<glyph name="dagger" format="2">
  <advance width="458"/>
  <unicode hex="2020"/>
  <outline>
    <contour>
      <point x="165" y="0" type="line"/>
      <point x="294" y="0" type="line"/>
      <point x="294" y="402" type="line"/>
      <point x="412" y="402" type="line"/>
      <point x="412" y="526" type="line"/>
      <point x="294" y="526" type="line"/>
      <point x="294" y="700" type="line"/>
      <point x="165" y="700" type="line"/>
      <point x="165" y="526" type="line"/>
      <point x="46" y="526" type="line"/>
      <point x="46" y="402" type="line"/>
      <point x="165" y="402" type="line"/>
    </contour>
  </outline>
</glyph>
<glyph name="uni2074" format="2">
  <advance width="367"/>
  <unicode hex="2074"/>
  <outline>
    <contour>
      <point x="217" y="350" type="line"/>
      <point x="315" y="350" type="line"/>
      <point x="315" y="422" type="line"/>
      <point x="359" y="422" type="line"/>
      <point x="359" y="502" type="line"/>
      <point x="315" y="502" type="line"/>
      <point x="315" y="700" type="line"/>
      <point x="200" y="700" type="line"/>
      <point x="21" y="501" type="line"/>
      <point x="21" y="422" type="line"/>
      <point x="217" y="422" type="line"/>
    </contour>
    <contour>
      <point x="130" y="502" type="line"/>
      <point x="217" y="597" type="line"/>
      <point x="217" y="502" type="line"/>
    </contour>
  </outline>
</glyph>
<glyph name="uni2077" format="2">
  <advance width="329"/>
  <unicode hex="2077"/>
  <outline>
    <contour>
      <point x="62" y="350" type="line"/>
      <point x="180" y="350" type="line"/>
      <point x="317" y="629" type="line"/>
      <point x="317" y="700" type="line"/>
      <point x="19" y="700" type="line"/>
      <point x="19" y="616" type="line"/>
      <point x="204" y="616" type="line"/>
    </contour>
  </outline>
</glyph>
<glyph name="uni2078" format="2">
  <advance width="340"/>
  <unicode hex="2078"/>
  <outline>
    <contour>
      <point x="170" y="344" type="curve" smooth="yes"/>
      <point x="258" y="344"/>
      <point x="318" y="387"/>
      <point x="318" y="451" type="curve" smooth="yes"/>
      <point x="318" y="484"/>
      <point x="299" y="511"/>
      <point x="269" y="527" type="curve"/>
      <point x="293" y="544"/>
      <point x="309" y="570"/>
      <point x="309" y="600" type="curve" smooth="yes"/>
      <point x="309" y="660"/>
      <point x="249" y="706"/>
      <point x="169" y="706" type="curve" smooth="yes"/>
      <point x="90" y="706"/>
      <point x="31" y="660"/>
      <point x="31" y="600" type="curve" smooth="yes"/>
      <point x="31" y="570"/>
      <point x="47" y="544"/>
      <point x="71" y="527" type="curve"/>
      <point x="41" y="511"/>
      <point x="22" y="484"/>
      <point x="22" y="451" type="curve" smooth="yes"/>
      <point x="22" y="387"/>
      <point x="81" y="344"/>
    </contour>
    <contour>
      <point x="170" y="560" type="curve" smooth="yes"/>
      <point x="145" y="560"/>
      <point x="127" y="574"/>
      <point x="127" y="593" type="curve" smooth="yes"/>
      <point x="127" y="612"/>
      <point x="145" y="626"/>
      <point x="170" y="626" type="curve" smooth="yes"/>
      <point x="195" y="626"/>
      <point x="213" y="612"/>
      <point x="213" y="593" type="curve" smooth="yes"/>
      <point x="213" y="574"/>
      <point x="194" y="560"/>
    </contour>
    <contour>
      <point x="170" y="424" type="curve" smooth="yes"/>
      <point x="140" y="424"/>
      <point x="120" y="437"/>
      <point x="120" y="457" type="curve" smooth="yes"/>
      <point x="120" y="477"/>
      <point x="140" y="490"/>
      <point x="170" y="490" type="curve" smooth="yes"/>
      <point x="200" y="490"/>
      <point x="220" y="477"/>
      <point x="220" y="457" type="curve" smooth="yes"/>
      <point x="220" y="437"/>
      <point x="200" y="424"/>
    </contour>
  </outline>
</glyph>
<glyph name="uni2082" format="2">
  <advance width="313"/>
  <unicode hex="2082"/>
  <outline>
    <contour>
      <point x="27" y="0" type="line"/>
      <point x="295" y="0" type="line"/>
      <point x="295" y="81" type="line"/>
      <point x="170" y="81" type="line"/>
      <point x="230" y="131" type="line" smooth="yes"/>
      <point x="273" y="165"/>
      <point x="293" y="200"/>
      <point x="293" y="240" type="curve" smooth="yes"/>
      <point x="293" y="309"/>
      <point x="237" y="354"/>
      <point x="154" y="355" type="curve" smooth="yes"/>
      <point x="100" y="354"/>
      <point x="49" y="333"/>
      <point x="5" y="293" type="curve"/>
      <point x="59" y="229" type="line"/>
      <point x="92" y="259"/>
      <point x="118" y="272"/>
      <point x="150" y="272" type="curve" smooth="yes"/>
      <point x="178" y="272"/>
      <point x="198" y="256"/>
      <point x="198" y="234" type="curve" smooth="yes"/>
      <point x="198" y="218"/>
      <point x="187" y="202"/>
      <point x="170" y="188" type="curve" smooth="yes"/>
      <point x="27" y="69" type="line"/>
    </contour>
  </outline>
</glyph>
<glyph name="uni2084" format="2">
  <advance width="367"/>
  <unicode hex="2084"/>
  <outline>
    <contour>
      <point x="217" y="0" type="line"/>
      <point x="315" y="0" type="line"/>
      <point x="315" y="72" type="line"/>
      <point x="359" y="72" type="line"/>
      <point x="359" y="152" type="line"/>
      <point x="315" y="152" type="line"/>
      <point x="315" y="350" type="line"/>
      <point x="200" y="350" type="line"/>
      <point x="21" y="151" type="line"/>
      <point x="21" y="72" type="line"/>
      <point x="217" y="72" type="line"/>
    </contour>
    <contour>
      <point x="130" y="152" type="line"/>
      <point x="217" y="247" type="line"/>
      <point x="217" y="152" type="line"/>
    </contour>
  </outline>
</glyph>
<glyph name="uni2085" format="2">
  <advance width="330"/>
  <unicode hex="2085"/>
  <outline>
    <contour>
      <point x="156" y="-6" type="curve" smooth="yes"/>
      <point x="249" y="-6"/>
      <point x="312" y="43"/>
      <point x="312" y="115" type="curve" smooth="yes"/>
      <point x="312" y="182"/>
      <point x="260" y="226"/>
      <point x="178" y="226" type="curve" smooth="yes"/>
      <point x="158" y="226"/>
      <point x="142" y="224"/>
      <point x="123" y="218" type="curve"/>
      <point x="125" y="269" type="line"/>
      <point x="292" y="269" type="line"/>
      <point x="292" y="350" type="line"/>
      <point x="47" y="350" type="line"/>
      <point x="38" y="158" type="line"/>
      <point x="104" y="138" type="line"/>
      <point x="120" y="147"/>
      <point x="140" y="151"/>
      <point x="155" y="151" type="curve" smooth="yes"/>
      <point x="189" y="151"/>
      <point x="212" y="135"/>
      <point x="212" y="114" type="curve" smooth="yes"/>
      <point x="212" y="91"/>
      <point x="192" y="77"/>
      <point x="159" y="77" type="curve" smooth="yes"/>
      <point x="130" y="77"/>
      <point x="107" y="86"/>
      <point x="78" y="109" type="curve"/>
      <point x="20" y="41" type="line"/>
      <point x="56" y="11"/>
      <point x="104" y="-6"/>
    </contour>
  </outline>
</glyph>
<glyph name="uni2086" format="2">
  <advance width="343"/>
  <unicode hex="2086"/>
  <outline>
    <contour>
      <point x="185" y="-6" type="curve" smooth="yes"/>
      <point x="265" y="-6"/>
      <point x="324" y="44"/>
      <point x="324" y="111" type="curve" smooth="yes"/>
      <point x="324" y="174"/>
      <point x="274" y="217"/>
      <point x="201" y="217" type="curve" smooth="yes"/>
      <point x="167" y="217"/>
      <point x="137" y="205"/>
      <point x="116" y="184" type="curve"/>
      <point x="120" y="243"/>
      <point x="145" y="272"/>
      <point x="191" y="272" type="curve" smooth="yes"/>
      <point x="222" y="272"/>
      <point x="242" y="265"/>
      <point x="263" y="245" type="curve"/>
      <point x="321" y="313" type="line"/>
      <point x="293" y="339"/>
      <point x="245" y="357"/>
      <point x="199" y="357" type="curve" smooth="yes"/>
      <point x="91" y="357"/>
      <point x="18" y="283"/>
      <point x="18" y="173" type="curve" smooth="yes"/>
      <point x="18" y="66"/>
      <point x="85" y="-6"/>
    </contour>
    <contour>
      <point x="186" y="142" type="curve" smooth="yes"/>
      <point x="212" y="142"/>
      <point x="229" y="129"/>
      <point x="229" y="109" type="curve" smooth="yes"/>
      <point x="229" y="90"/>
      <point x="208" y="76"/>
      <point x="180" y="76" type="curve" smooth="yes"/>
      <point x="155" y="76"/>
      <point x="135" y="92"/>
      <point x="124" y="117" type="curve"/>
      <point x="141" y="134"/>
      <point x="161" y="142"/>
    </contour>
  </outline>
</glyph>
<glyph name="uni2215" format="2">
  <advance width="577"/>
  <unicode hex="2215"/>
  <outline>
    <contour>
      <point x="15" y="0" type="line"/>
      <point x="129" y="0" type="line"/>
      <point x="527" y="700" type="line"/>
      <point x="412" y="700" type="line"/>
    </contour>
  </outline>
</glyph>
<glyph name="reversequotedblleft" format="2">
  <advance width="464"/>
  <outline>
    <contour>
      <point x="122" y="466" type="line"/>
      <point x="243" y="466" type="line"/>
      <point x="170" y="750" type="line"/>
      <point x="3" y="750" type="line"/>
    </contour>
    <contour>
      <point x="336" y="466" type="line"/>
      <point x="457" y="466" type="line"/>
      <point x="384" y="750" type="line"/>
      <point x="217" y="750" type="line"/>
    </contour>
  </outline>
</glyph>
